<svg xmlns="http://www.w3.org/2000/svg" viewBox="0 0 960 600" role="img" aria-labelledby="t d">
  <title id="t">LAMID DESK — client pipeline dashboard preview</title>
  <desc id="d">Illustrative dashboard preview: engagement pipeline, milestone status and invoicing.</desc>
  <rect x="1" y="1" width="958" height="598" rx="18" fill="#FBF9F8" stroke="#E7E4E1" stroke-width="2"/>
  <rect x="1" y="1" width="958" height="52" rx="18" fill="#FFFFFF"/>
  <rect x="1" y="35" width="958" height="18" fill="#FFFFFF"/>
  <line x1="1" y1="53" x2="959" y2="53" stroke="#EFEDEA" stroke-width="1.5"/>
  <circle cx="30" cy="27" r="5" fill="#E7E4E1"/><circle cx="48" cy="27" r="5" fill="#E7E4E1"/><circle cx="66" cy="27" r="5" fill="#E7E4E1"/>
  <text x="92" y="32" font-family="system-ui,sans-serif" font-size="13" fill="#8A8A94">LAMID DESK — Engagement pipeline</text>

  <g font-family="system-ui,sans-serif">
    <rect x="40" y="88" width="270" height="108" rx="12" fill="#0369A1" fill-opacity=".08"/>
    <text x="64" y="150" font-size="44" fill="#0369A1" font-weight="600">6</text>
    <text x="64" y="176" font-size="13" fill="#5C5C66">Live engagements</text>

    <rect x="330" y="88" width="270" height="108" rx="12" fill="#0369A1" fill-opacity=".05"/>
    <text x="354" y="146" font-size="36" fill="#16161A" font-weight="600">$62,400</text>
    <text x="354" y="176" font-size="13" fill="#5C5C66">Released to collaborators</text>

    <rect x="620" y="88" width="300" height="108" rx="12" fill="#0369A1" fill-opacity=".05"/>
    <text x="644" y="150" font-size="44" fill="#16161A" font-weight="600">2</text>
    <text x="644" y="176" font-size="13" fill="#5C5C66">Milestones awaiting approval</text>
  </g>

  <g font-family="system-ui,sans-serif" font-size="13">
    <rect x="40" y="228" width="880" height="342" rx="12" fill="#FFFFFF" stroke="#EFEDEA" stroke-width="1.5"/>
    <text x="64" y="260" fill="#8A8A94" font-size="11">CLIENT</text>
    <text x="380" y="260" fill="#8A8A94" font-size="11">STAGE</text>
    <text x="580" y="260" fill="#8A8A94" font-size="11">VALUE</text>
    <text x="740" y="260" fill="#8A8A94" font-size="11">STATUS</text>
    <line x1="64" y1="272" x2="856" y2="272" stroke="#EFEDEA"/>
    <g>
      <text x="64" y="302" fill="#16161A">Northwind Group</text><text x="380" y="302" fill="#5C5C66">Diagnostic</text><text x="580" y="302" fill="#5C5C66">$18,000</text><text x="740" y="302" fill="#0369A1">In review</text>
      <text x="64" y="340" fill="#16161A">Halden &amp; Co</text><text x="380" y="340" fill="#5C5C66">Proposal sent</text><text x="580" y="340" fill="#5C5C66">$26,500</text><text x="740" y="340" fill="#B45309">Awaiting</text>
      <text x="64" y="378" fill="#16161A">Meridian Trust</text><text x="380" y="378" fill="#5C5C66">Milestone 2</text><text x="580" y="378" fill="#5C5C66">$14,200</text><text x="740" y="378" fill="#15803D">Released</text>
      <text x="64" y="416" fill="#16161A">Okonkwo Partners</text><text x="380" y="416" fill="#5C5C66">Milestone 3</text><text x="580" y="416" fill="#5C5C66">$22,000</text><text x="740" y="416" fill="#15803D">Approved</text>
      <text x="64" y="454" fill="#16161A">Fircroft</text><text x="380" y="454" fill="#5C5C66">Contract sent</text><text x="580" y="454" fill="#5C5C66">$9,800</text><text x="740" y="454" fill="#0369A1">In review</text>
    </g>
    <line x1="64" y1="284" x2="856" y2="284" stroke="#F5F3F1"/>
    <line x1="64" y1="322" x2="856" y2="322" stroke="#F5F3F1"/>
    <line x1="64" y1="360" x2="856" y2="360" stroke="#F5F3F1"/>
    <line x1="64" y1="398" x2="856" y2="398" stroke="#F5F3F1"/>
    <line x1="64" y1="436" x2="856" y2="436" stroke="#F5F3F1"/>
  </g>
</svg>
